# xmcd
#
# Track frame offsets:
#	150
#	23490
#	46335
#	70225
#	93482
#	113850
#	141497
#	167110
#	190437
#	214502
#	233872
#	255405
#
# Disc length: 3738 seconds
#
# Revision: 834626231
# Processed by: cddbd v1.5.2PL0 Copyright (c) Steve Scherf et al.
# Submitted via: EZCDAudioConverter 8.0.2.1
#
DISCID=a60e980c
DTITLE=Chế Linh - Thói Đời
DYEAR=2001
DGENRE=
TTITLE0=Trên 4 Vùng Chiến Thuật
TTITLE1=Thành phố buồn
TTITLE2=Chuyện chúng mình
TTITLE3=Mùa thu trong mưa
TTITLE4=Sao đổi ngôi
TTITLE5=Lần đầu cũng là lần cuối
TTITLE6=Thói Đời
TTITLE7=Buồn tàn thu
TTITLE8=Đôi ngã chia ly
TTITLE9=Thương hận
TTITLE10=Xin vẫy tay chào
TTITLE11=Con đường mang tên em
EXTD=
EXTT0=
EXTT1=
EXTT2=
EXTT3=
EXTT4=
EXTT5=
EXTT6=
EXTT7=
EXTT8=
EXTT9=
EXTT10=
EXTT11=
PLAYORDER=
